<?xml version="1.0" encoding="UTF-8" standalone="no"?>
<!DOCTYPE svg PUBLIC "-//W3C//DTD SVG 1.1//EN" "http://www.w3.org/Graphics/SVG/1.1/DTD/svg11.dtd">
<svg width="100%" height="100%" viewBox="0 0 49 49" version="1.1" xmlns="http://www.w3.org/2000/svg" xmlns:xlink="http://www.w3.org/1999/xlink" xml:space="preserve" style="fill-rule:evenodd;clip-rule:evenodd;stroke-linejoin:round;stroke-miterlimit:1.41421;">
    <g transform="matrix(1,0,0,1,-4.2465,-4.2965)">
        <g transform="matrix(1,0,0,1,-0.137477,-2.0075)">
            <path d="M45.575,45.243C45.335,45.241 45.089,45.298 44.86,45.405C44.6,45.509 44.337,45.628 44.09,45.733L43.723,45.885L43.246,46.074L43.246,46.08C38.078,48.176 32.65,49.404 27.627,49.512C27.443,49.518 27.258,49.518 27.076,49.518C19.178,49.522 12.733,45.858 6.228,42.248C6,42.129 5.771,42.066 5.542,42.066C5.248,42.066 4.949,42.175 4.731,42.38C4.512,42.585 4.382,42.884 4.384,43.187C4.383,43.582 4.596,43.943 4.891,44.177C10.995,49.476 17.684,54.4 26.679,54.404C26.855,54.404 27.033,54.4 27.214,54.396C32.935,54.267 39.409,52.335 44.431,49.179L44.46,49.159C45.118,48.766 45.776,48.319 46.396,47.823C46.783,47.536 47.048,47.091 47.044,46.626C47.032,45.802 46.331,45.243 45.575,45.243Z"/>
        </g>
        <g transform="matrix(1,0,0,1,-0.137477,-2.0075)">
            <path d="M52.544,42.317L52.544,42.315C52.524,41.811 52.417,41.43 52.208,41.112L52.187,41.083L52.162,41.052C51.949,40.82 51.746,40.732 51.523,40.634C50.865,40.38 49.906,40.245 48.75,40.241C47.92,40.241 47.002,40.319 46.084,40.52L46.082,40.459L45.154,40.768L45.138,40.776L44.615,40.946L44.615,40.969C44.002,41.223 43.443,41.541 42.924,41.916C42.604,42.158 42.334,42.477 42.319,42.967C42.311,43.233 42.446,43.539 42.673,43.721C42.896,43.903 43.157,43.963 43.386,43.963C43.441,43.963 43.491,43.961 43.536,43.953L43.581,43.949L43.616,43.943C44.069,43.847 44.729,43.783 45.501,43.673C46.163,43.601 46.866,43.546 47.476,43.546C47.908,43.544 48.294,43.573 48.56,43.632C48.693,43.659 48.792,43.694 48.849,43.722C48.867,43.73 48.88,43.738 48.888,43.743C48.9,43.78 48.917,43.874 48.915,44.009C48.921,44.519 48.702,45.464 48.407,46.386C48.118,47.31 47.766,48.236 47.532,48.851C47.477,48.994 47.442,49.148 47.442,49.318C47.438,49.566 47.538,49.865 47.753,50.064C47.962,50.263 48.232,50.341 48.46,50.341L48.47,50.341C48.812,50.337 49.101,50.202 49.351,50.007C51.703,47.892 52.519,44.519 52.552,42.618L52.544,42.317Z"/>
        </g>
        <g transform="matrix(1,0,0,1,-0.137477,-2.0075)">
            <path d="M31.046,19.657C29.663,19.761 28.069,19.866 26.474,20.077C24.031,20.399 21.585,20.821 19.567,21.78C15.635,23.374 12.977,26.775 12.977,31.769C12.977,38.042 17.015,41.23 22.118,41.23C23.817,41.23 25.202,41.015 26.473,40.699C28.494,40.06 30.194,38.892 32.215,36.763C33.383,38.359 33.703,39.105 35.721,40.804C36.252,41.015 36.783,41.015 37.207,40.699C38.484,39.635 40.717,37.72 41.885,36.66C42.418,36.234 42.311,35.596 41.99,35.068C40.824,33.578 39.652,32.302 39.652,29.431L39.652,19.866C39.652,15.827 39.972,12.106 36.996,9.346C34.553,7.116 30.726,6.264 27.75,6.264L26.473,6.264C21.055,6.578 15.314,8.918 14.039,15.616C13.826,16.468 14.465,16.784 14.891,16.889L20.841,17.633C21.482,17.528 21.798,16.994 21.905,16.467C22.436,14.127 24.348,12.957 26.473,12.744L26.901,12.744C28.176,12.744 29.557,13.277 30.301,14.34C31.151,15.615 31.045,17.317 31.045,18.805L31.045,19.657L31.046,19.657ZM29.878,32.302C29.134,33.786 27.857,34.743 26.474,35.068C26.263,35.068 25.945,35.173 25.624,35.173C23.288,35.173 21.905,33.364 21.905,30.708C21.905,27.306 23.925,25.712 26.473,24.968C27.856,24.65 29.45,24.542 31.045,24.542L31.045,25.819C31.046,28.263 31.151,30.175 29.878,32.302Z"/>
        </g>
    </g>
</svg>
