<?xml version="1.0" encoding="UTF-8" standalone="no"?>
<!DOCTYPE svg PUBLIC "-//W3C//DTD SVG 1.1//EN" "http://www.w3.org/Graphics/SVG/1.1/DTD/svg11.dtd">
<svg width="100%" height="100%" viewBox="0 0 50 37" version="1.1" xmlns="http://www.w3.org/2000/svg" xmlns:xlink="http://www.w3.org/1999/xlink" xml:space="preserve" style="fill-rule:evenodd;clip-rule:evenodd;stroke-linejoin:round;stroke-miterlimit:1.41421;">
    <g transform="matrix(1,0,0,1,-3.2785,-9.3046)">
        <path d="M53.172,14.595L53.173,14.594L53.172,14.595L53.172,13.411C53.172,11.164 51.334,9.326 49.087,9.326L49.085,9.327L49.083,9.329L49.087,9.326L7.396,9.326L7.412,9.339L7.396,9.327C5.149,9.327 3.311,11.165 3.311,13.412L3.311,41.32C3.311,43.566 5.149,45.405 7.396,45.405L47.508,45.405L47.508,45.404C51.794,45.354 53.081,44.293 53.179,41.323L53.172,14.595ZM46.043,10.326L28.175,23.487L10.424,10.326L46.043,10.326ZM9.861,20.552L26.412,31.953L26.428,31.964L9.851,43.491L9.861,20.552ZM10.289,44.405L27.304,32.573L27.602,32.781C27.774,32.9 27.974,32.96 28.173,32.96C28.372,32.96 29.051,32.57 29.051,32.57L46.07,44.405L10.289,44.405ZM46.497,43.484L29.93,31.964L39.17,25.6L46.497,20.553L46.497,43.484Z" style="fill-rule:nonzero;"/>
    </g>
</svg>
