<?xml version="1.0" encoding="UTF-8" standalone="no"?>
<!DOCTYPE svg PUBLIC "-//W3C//DTD SVG 1.1//EN" "http://www.w3.org/Graphics/SVG/1.1/DTD/svg11.dtd">
<svg width="100%" height="100%" viewBox="0 0 47 50" version="1.1" xmlns="http://www.w3.org/2000/svg" xmlns:xlink="http://www.w3.org/1999/xlink" xml:space="preserve" style="fill-rule:evenodd;clip-rule:evenodd;stroke-linejoin:round;stroke-miterlimit:1.41421;">
    <g transform="matrix(1,0,0,1,-4.8967,-3.5967)">
        <g transform="matrix(1,0,0,1,-0.1831,0.423963)">
            <path d="M39.332,18.062L12.674,3.791C11.289,3.049 9.787,3.011 8.487,3.485L31.198,26.196L39.332,18.062Z" style="fill-rule:nonzero;"/>
        </g>
        <g transform="matrix(1,0,0,1,-0.1831,0.423963)">
            <path d="M49.273,23.384L41.594,19.273L32.935,27.933L41.594,36.592L49.273,32.481C52.905,30.537 52.905,25.329 49.273,23.384Z" style="fill-rule:nonzero;"/>
        </g>
        <g transform="matrix(1,0,0,1,-0.1831,0.423963)">
            <path d="M6.408,4.879C5.593,5.775 5.08,6.97 5.08,8.339L5.08,47.527C5.08,48.896 5.593,50.091 6.408,50.987L29.461,27.933L6.408,4.879Z" style="fill-rule:nonzero;"/>
        </g>
        <g transform="matrix(1,0,0,1,-0.1831,0.423963)">
            <path d="M8.487,52.381C9.787,52.855 11.289,52.817 12.674,52.075L39.332,37.804L31.198,29.67L8.487,52.381Z" style="fill-rule:nonzero;"/>
        </g>
    </g>
</svg>
