<?xml version="1.0" encoding="UTF-8" standalone="no"?>
<!DOCTYPE svg PUBLIC "-//W3C//DTD SVG 1.1//EN" "http://www.w3.org/Graphics/SVG/1.1/DTD/svg11.dtd">
<svg width="100%" height="100%" viewBox="0 0 14 16" version="1.1" xmlns="http://www.w3.org/2000/svg" xmlns:xlink="http://www.w3.org/1999/xlink" xml:space="preserve" style="fill-rule:evenodd;clip-rule:evenodd;stroke-linejoin:round;stroke-miterlimit:1.41421;">
    <g id="Rectangle-233" transform="matrix(1,0,0,1,-481,-192)">
        <path d="M486,197.8L486,205.598L486,205.598C486.007,206.311 485.533,207.115 484.55,207.621C483.186,208.322 481.751,207.98 481.226,207.17C480.701,206.359 481.085,205.081 482.45,204.379C483.367,203.907 484.317,203.908 485,204.205L485,198L485,194L495,192L495,204.6L495,204.6C495.006,205.313 494.532,206.116 493.55,206.621C492.186,207.322 490.751,206.98 490.226,206.17C489.701,205.359 490.085,204.081 491.45,203.379C492.367,202.907 493.317,202.908 494,203.205L494,196.2L486,197.8Z"/>
    </g>
</svg>
