<?xml version="1.0" encoding="UTF-8" standalone="no"?>
<!DOCTYPE svg PUBLIC "-//W3C//DTD SVG 1.1//EN" "http://www.w3.org/Graphics/SVG/1.1/DTD/svg11.dtd">
<svg width="100%" height="100%" viewBox="0 0 49 15" version="1.1" xmlns="http://www.w3.org/2000/svg" xmlns:xlink="http://www.w3.org/1999/xlink" xml:space="preserve" style="fill-rule:evenodd;clip-rule:evenodd;stroke-linejoin:round;stroke-miterlimit:1.41421;">
    <g transform="matrix(1,0,0,1,-0.8,-17.65)">
        <g transform="matrix(1,0,0,1,0.008,0.021)">
            <path d="M38.604,19.979C37.395,19.979 36.438,20.343 35.706,20.511L35.481,22.605C35.846,22.408 36.999,22.041 37.96,22.009C38.917,21.974 39.478,22.204 39.282,23.139C36.438,23.139 34.522,23.805 34.127,25.897C33.564,29.486 37.029,29.39 38.405,27.827L38.24,28.689L40.774,28.689L41.872,22.97C42.324,20.546 40.381,19.946 38.604,19.979ZM38.773,25.827C38.632,26.595 38.095,26.928 37.451,26.958C36.885,26.991 36.38,26.431 36.744,25.765C37.028,25.197 37.816,25.068 38.297,25.068C38.491,25.068 38.719,25.068 38.916,25.068C38.859,25.331 38.832,25.563 38.773,25.827Z"/>
        </g>
        <g transform="matrix(1,0,0,1,0.008,0.021)">
            <path d="M44.037,17.719L41.945,28.688L44.521,28.688L46.641,17.719L44.037,17.719Z"/>
        </g>
        <g transform="matrix(1,0,0,1,0.008,0.021)">
            <path d="M32.211,17.751L27.498,17.751L25.408,28.689L28.146,28.689L28.852,25.068L30.802,25.068C32.72,25.068 34.302,23.734 34.724,21.475C35.207,18.915 33.568,17.751 32.211,17.751ZM32.126,21.475C31.957,22.306 31.222,22.97 30.52,22.97L29.25,22.97L29.814,19.979L31.169,19.979C31.873,19.979 32.295,20.644 32.126,21.475Z"/>
        </g>
        <g transform="matrix(1,0,0,1,0.008,0.021)">
            <path d="M13.924,19.979C12.729,19.979 11.781,20.343 11.084,20.511L10.864,22.605C11.198,22.408 12.34,22.041 13.284,22.009C14.229,21.974 14.785,22.204 14.618,23.139C11.808,23.139 9.916,23.805 9.531,25.897C8.97,29.486 12.396,29.39 13.728,27.827L13.562,28.689L16.093,28.689L17.176,22.97C17.622,20.546 15.676,19.946 13.924,19.979ZM14.119,25.827C13.977,26.595 13.422,26.928 12.78,26.958C12.229,26.991 11.755,26.431 12.118,25.765C12.396,25.197 13.171,25.068 13.618,25.068C13.837,25.068 14.037,25.068 14.258,25.068C14.202,25.331 14.146,25.563 14.119,25.827Z"/>
        </g>
        <g transform="matrix(1,0,0,1,0.008,0.021)">
            <path d="M18.281,20.136L20.81,20.136L21.219,25.228L23.693,20.136L26.311,20.136L20.291,32.329L17.462,32.329L19.313,28.743L18.281,20.136Z"/>
        </g>
        <g transform="matrix(1,0,0,1,0.008,0.021)">
            <path d="M7.626,17.751L2.906,17.751L0.809,28.688L3.583,28.688L4.262,25.067L6.242,25.067C8.137,25.067 9.723,23.733 10.148,21.474C10.628,18.915 9.014,17.751 7.626,17.751ZM7.542,21.475C7.375,22.306 6.667,22.97 5.959,22.97L4.659,22.97L5.251,19.979L6.609,19.979C7.288,19.979 7.743,20.644 7.542,21.475Z"/>
        </g>
        <g transform="matrix(1,0,0,1,0.008,0.021)">
            <path d="M47.195,19.136L47.195,17.843L46.771,17.843L46.771,17.671L47.792,17.671L47.792,17.843L47.365,17.843L47.365,19.136L47.195,19.136Z" style="fill-rule:nonzero;"/>
        </g>
        <g transform="matrix(1,0,0,1,0.008,0.021)">
            <path d="M47.965,19.136L47.965,17.671L48.219,17.671L48.522,18.708C48.552,18.804 48.571,18.875 48.585,18.921C48.601,18.868 48.623,18.792 48.654,18.691L48.965,17.671L49.192,17.671L49.192,19.136L49.028,19.136L49.028,17.907L48.655,19.136L48.497,19.136L48.127,17.888L48.127,19.136L47.965,19.136Z" style="fill-rule:nonzero;"/>
        </g>
    </g>
</svg>
