<?xml version="1.0" encoding="UTF-8" standalone="no"?>
<!DOCTYPE svg PUBLIC "-//W3C//DTD SVG 1.1//EN" "http://www.w3.org/Graphics/SVG/1.1/DTD/svg11.dtd">
<svg width="100%" height="100%" viewBox="0 0 50 22" version="1.1" xmlns="http://www.w3.org/2000/svg" xmlns:xlink="http://www.w3.org/1999/xlink" xml:space="preserve" style="fill-rule:evenodd;clip-rule:evenodd;stroke-linejoin:round;stroke-miterlimit:1.41421;">
    <g transform="matrix(1,0,0,1,-3.698,-15.953)">
        <path d="M6.079,36.215C6.183,36.215 6.267,36.133 6.284,36.016L6.835,31.686L6.284,27.258C6.267,27.141 6.182,27.061 6.078,27.061C5.974,27.061 5.888,27.145 5.873,27.258C5.873,27.26 5.388,31.686 5.388,31.686L5.873,36.016C5.888,36.131 5.975,36.215 6.079,36.215ZM4.453,34.377L4.453,34.379L4.453,34.377ZM4.256,34.57C4.356,34.57 4.437,34.49 4.453,34.379L4.88,31.686L4.453,28.948C4.438,28.835 4.356,28.755 4.256,28.755C4.153,28.755 4.072,28.837 4.058,28.95L3.698,31.686L4.058,34.377C4.072,34.49 4.154,34.57 4.256,34.57ZM8.263,26.434C8.247,26.293 8.143,26.192 8.015,26.192C7.885,26.192 7.781,26.294 7.768,26.434C7.768,26.436 7.308,31.688 7.308,31.688L7.768,36.749C7.781,36.89 7.885,36.991 8.015,36.991C8.143,36.991 8.247,36.889 8.262,36.751L8.785,31.689L8.263,26.434ZM9.969,37.191C10.119,37.191 10.243,37.07 10.257,36.908L10.751,31.687L10.257,26.291C10.243,26.127 10.119,26.006 9.969,26.006C9.816,26.006 9.691,26.127 9.679,26.291L9.243,31.687L9.679,36.908C9.691,37.07 9.815,37.191 9.969,37.191ZM11.937,37.277C12.113,37.277 12.255,37.138 12.268,36.951L12.268,36.953L12.734,31.687L12.268,26.679C12.256,26.493 12.113,26.353 11.937,26.353C11.759,26.353 11.616,26.496 11.605,26.681L11.195,31.687L11.605,36.951C11.616,37.139 11.758,37.277 11.937,37.277ZM14.73,31.689L14.293,23.544C14.282,23.337 14.118,23.175 13.92,23.175C13.721,23.175 13.558,23.337 13.547,23.544L13.162,31.689L13.547,36.955C13.558,37.16 13.721,37.322 13.92,37.322C14.118,37.322 14.282,37.16 14.293,36.953L14.293,36.955L14.73,31.689ZM15.92,37.332C16.142,37.332 16.325,37.15 16.336,36.92L16.336,36.924L16.743,31.692L16.336,21.684C16.325,21.452 16.143,21.272 15.92,21.272C15.697,21.272 15.515,21.452 15.505,21.684L15.145,31.692L15.505,36.922C15.515,37.15 15.698,37.332 15.92,37.332ZM17.937,20.395C17.688,20.395 17.488,20.594 17.479,20.85L17.143,31.692L17.479,36.87C17.487,37.122 17.688,37.321 17.937,37.321C18.183,37.321 18.384,37.122 18.394,36.868L18.394,36.872L18.773,31.692L18.394,20.85C18.384,20.594 18.183,20.395 17.937,20.395ZM19.968,37.332C20.24,37.332 20.459,37.113 20.468,36.836L20.468,36.838L20.818,31.693L20.468,20.484C20.459,20.205 20.24,19.988 19.968,19.988C19.697,19.988 19.477,20.205 19.468,20.484L19.157,31.691L19.468,36.837C19.477,37.113 19.697,37.332 19.968,37.332ZM22.017,37.326C22.312,37.326 22.55,37.088 22.558,36.787L22.558,36.791L22.878,31.693L22.558,20.769C22.55,20.468 22.312,20.232 22.017,20.232C21.72,20.232 21.482,20.468 21.475,20.769L21.189,31.693L21.475,36.789C21.481,37.088 21.72,37.326 22.017,37.326ZM24.956,31.693L24.664,21.168C24.656,20.844 24.399,20.588 24.08,20.588C23.759,20.588 23.503,20.844 23.496,21.17L23.235,31.693L23.497,36.759C23.503,37.079 23.759,37.335 24.08,37.335C24.399,37.335 24.656,37.079 24.664,36.753L24.664,36.759L24.956,31.693ZM26.159,37.346C26.498,37.346 26.778,37.067 26.785,36.723L26.785,36.727L27.048,31.696L26.785,19.173C26.778,18.829 26.498,18.55 26.159,18.55C25.819,18.55 25.54,18.829 25.534,19.173L25.298,31.693C25.298,31.703 25.534,36.726 25.534,36.726C25.54,37.066 25.819,37.346 26.159,37.346ZM28.229,17.372C27.866,17.372 27.567,17.672 27.561,18.039L27.288,31.696L27.561,36.655C27.567,37.016 27.866,37.315 28.229,37.315C28.592,37.315 28.891,37.016 28.897,36.651L28.897,36.655L29.194,31.696L28.897,18.038C28.892,17.671 28.593,17.372 28.229,17.372ZM30.124,37.35C30.14,37.352 46.823,37.36 46.931,37.36C50.281,37.36 52.995,34.645 52.995,31.296C52.995,27.947 50.28,25.234 46.931,25.234C46.101,25.234 45.308,25.402 44.587,25.703C44.103,20.238 39.523,15.953 33.933,15.953C32.564,15.953 31.231,16.223 30.054,16.679C29.595,16.856 29.474,17.037 29.47,17.392L29.47,36.636C29.474,37.004 29.762,37.312 30.124,37.35Z" style="fill-rule:nonzero;"/>
    </g>
</svg>
