<?xml version="1.0" encoding="UTF-8" standalone="no"?>
<!DOCTYPE svg PUBLIC "-//W3C//DTD SVG 1.1//EN" "http://www.w3.org/Graphics/SVG/1.1/DTD/svg11.dtd">
<svg width="100%" height="100%" viewBox="0 0 35 24" version="1.1" xmlns="http://www.w3.org/2000/svg" xmlns:xlink="http://www.w3.org/1999/xlink" xml:space="preserve" style="fill-rule:evenodd;clip-rule:evenodd;stroke-linejoin:round;stroke-miterlimit:1.41421;">
    <g transform="matrix(1,0,0,1,-0.7,-0.45)">
        <g id="black">
            <path id="Spotify" d="M26.676,23.538C26.459,23.531 26.243,23.467 26.047,23.343C26.045,23.343 25.794,23.181 25.279,22.901C24.763,22.62 24.004,22.232 23.057,21.826C21.166,21.007 18.518,20.101 15.559,19.753C14.651,19.647 13.777,19.582 12.941,19.555C9.18,19.429 6.225,19.998 5.02,20.279C4.617,20.373 4.432,20.43 4.431,20.43C3.76,20.63 3.058,20.238 2.861,19.557C2.666,18.874 3.049,18.159 3.719,17.959C3.805,17.935 7.617,16.804 13.02,16.982C13.921,17.013 14.869,17.081 15.847,17.197C22.412,17.978 27.298,21.113 27.389,21.16C27.982,21.538 28.161,22.333 27.79,22.934C27.544,23.338 27.113,23.553 26.676,23.538ZM31.279,15.947C30.969,16.449 30.431,16.719 29.885,16.7C29.614,16.691 29.344,16.611 29.099,16.455C29.098,16.457 29.042,16.418 28.893,16.33C28.742,16.241 28.515,16.11 28.221,15.95C27.627,15.626 26.757,15.181 25.666,14.711C23.491,13.77 20.446,12.731 17.044,12.332C16.003,12.209 14.996,12.136 14.033,12.104C9.706,11.959 6.306,12.613 4.923,12.936C4.462,13.045 4.252,13.107 4.251,13.11C3.413,13.357 2.533,12.868 2.289,12.015C2.043,11.161 2.523,10.267 3.363,10.021C3.469,9.987 7.881,8.68 14.135,8.888C15.178,8.923 16.272,9.001 17.406,9.135C25.012,10.041 30.667,13.665 30.78,13.729C31.519,14.203 31.744,15.195 31.279,15.947ZM35.018,8.864C34.645,9.467 33.997,9.79 33.344,9.768C33.021,9.757 32.695,9.662 32.403,9.474C32.403,9.474 32.335,9.43 32.158,9.324C31.983,9.221 31.717,9.066 31.366,8.876C30.669,8.497 29.642,7.974 28.357,7.418C25.793,6.31 22.206,5.084 18.2,4.614C16.971,4.47 15.783,4.385 14.65,4.348C8.703,4.146 4.241,5.227 3.304,5.479C3.171,5.514 3.124,5.529 3.124,5.529C2.118,5.828 1.064,5.24 0.769,4.217C0.475,3.194 1.05,2.12 2.058,1.821C2.186,1.786 7.393,0.242 14.774,0.488C16.005,0.528 17.295,0.619 18.633,0.777C27.614,1.848 34.282,6.124 34.418,6.201C35.305,6.766 35.574,7.96 35.018,8.864Z"/>
        </g>
    </g>
</svg>
